# AST/ASF file generated using VICON BodyLanguage
# -----------------------------------------------
:version 1.10
:name VICON
:units
  mass 1.0
  length 0.45
  angle deg
:documentation
   .ast/.asf automatically generated from VICON data using
   VICON BodyBuilder and BodyLanguage model FoxedUp or BRILLIANT.MOD
:root
   order TX TY TZ RX RY RZ
   axis XYZ
   position 0 0 0  
   orientation 0 0 0 
:bonedata
  begin
     id 1 
     name lhipjoint
     direction 0.573633 -0.743009 0.344793 
     length 2.46257 
     axis 0 0 0  XYZ
  end
  begin
     id 2 
     name lfemur
     direction 0.34202 -0.939693 0  
     length 7.3842  
     axis 0 0 20  XYZ
    dof rx ry rz
    limits (-160.0 20.0)
           (-70.0 70.0)
           (-60.0 70.0)
  end
  begin
     id 3 
     name ltibia
     direction 0.34202 -0.939693 0   
     length 7.50407   
     axis 0 0 20   XYZ
    dof rx
    limits (-10.0 170.0)
  end
  begin
     id 4 
     name lfoot
     direction 0.110749 -0.304281 0.946123   
     length 1.95925   
     axis -90 7.62852e-016 20   XYZ
    dof rx rz
    limits (-45.0 90.0)
           (-70.0 20.0)
  end
  begin
     id 5 
     name ltoes
     direction 1.53554e-011 -4.21843e-011 1   
     length 0.978318   
     axis -90 7.62852e-016 20   XYZ
    dof rx
    limits (-90.0 20.0)
  end
  begin
     id 6 
     name rhipjoint
     direction -0.488109 -0.791693 0.367385   
     length 2.31113  
     axis 0 0 0  XYZ 
  end
  begin
     id 7 
     name rfemur
     direction -0.34202 -0.939693 0   
     length 7.40965   
     axis 0 0 -20   XYZ
    dof rx ry rz
    limits (-160.0 20.0)
           (-70.0 70.0)
           (-70.0 60.0)
  end
  begin
     id 8 
     name rtibia
     direction -0.34202 -0.939693 0   
     length 7.55548   
     axis 0 0 -20   XYZ
    dof rx
    limits (-10.0 170.0)
 end
 begin
     id 9 
     name rfoot
     direction -0.127594 -0.350561 0.927808   
     length 2.07199  
     axis -90 -7.62852e-016 -20   XYZ
    dof rx rz
    limits (-45.0 90.0)
           (-20.0 70.0)
  end
  begin
     id 10 
     name rtoes
     direction -1.53542e-011 -4.21909e-011 1   
     length 1.02667   
     axis -90 -7.62852e-016 -20   XYZ
    dof rx
    limits (-90.0 20.0)
  end
  begin
     id 11 
     name lowerback
     direction -0.0103342 0.997298 -0.0727278   
     length 2.02836   
     axis 0 0 0   XYZ
    dof rx ry rz
    limits (-20.0 45.0)
           (-30.0 30.0)
           (-30.0 30.0)
  end
  begin
     id 12 
     name upperback
     direction 0.0171146 0.999786 -0.011606   
     length 2.03179   
     axis 0 0 0   XYZ
    dof rx ry rz
    limits (-20.0 45.0)
           (-30.0 30.0)
           (-30.0 30.0)
  end
  begin
     id 13 
     name thorax
     direction 0.0216927 0.999513 0.0224343   
     length 2.03882   
     axis 0 0 0   XYZ
    dof rx ry rz
    limits (-20.0 45.0)
           (-30.0 30.0)
           (-30.0 30.0)
  end
  begin
     id 14 
     name lowerneck
     direction 0.000989287 0.993907 0.110221   
     length 1.75428   
     axis 0 0 0   XYZ
    dof rx ry rz
    limits (-20.0 45.0)
           (-30.0 30.0)
           (-30.0 30.0)
  end
  begin
     id 15 
     name upperneck
     direction -0.0172474 0.994813 -0.100253   
     length 1.77058   
     axis 0 0 0   XYZ
    dof rx ry rz
    limits (-20.0 45.0)
           (-30.0 30.0)
           (-30.0 30.0)
  end
  begin
     id 16
     name head
     direction -0.00486455 0.99894 -0.0457663  
     length 1.77427  
     axis 0 0 0   XYZ
    dof rx ry rz
    limits (-20.0 45.0)
           (-30.0 30.0)
           (-30.0 30.0)
  end
  begin
     id 17 
     name lclavicle
     direction 0.927314 0.333734 -0.169441  
     length 3.97584  
     axis 0 0 0   XYZ
    dof ry rz
    limits (-20.0 10.0)
           (0.0 20.0)
  end
  begin
     id 18 
     name lhumerus
     direction 1 -4.48965e-011 -3.25313e-028   
     length 4.76468   
     axis 180 -30 -90   XYZ
    dof rx ry rz
    limits (-60.0 90.0)
           (-90.0 90.0)
           (-90.0 90.0)
  end
  begin
     id 19
     name lradius
     direction 1 -4.48969e-011 -2.8465e-028   
     length 3.52712   
     axis -180 -30 -90   XYZ
    dof rx
    limits (-10.0 170.0)
  end
  begin
     id 20
     name lwrist
     direction 1 -4.4896e-011 -7.78665e-028   
     length 1.76356   
     axis 1.91374e-015 90 90   XYZ
    dof ry
    limits (-180.0 0.0)
 end
  begin
     id 21 
     name lhand
     direction 1 -4.48959e-011 -1.55733e-027   
     length 0.859564   
     axis 9.9371e-016 90 90   XYZ
    dof rx rz
    limits (-90.0 90.0)
           (-45.0 45.0)
  end
  begin
     id 22 
     name lfingers
     direction 1 -4.48965e-011 -3.11466e-027   
     length 0.693002   
     axis 1.98742e-015 90 90   XYZ
    dof rx
    limits (0.0 90.0)
  end
  begin
     id 23
     name lthumb
     direction 0.707107 -6.34948e-011 0.707107   
     length 0.995017   
     axis -90 45 2.85299e-015   XYZ
    dof rx rz
    limits (-45.0 45.0)
           (-45.0 45.0)
  end
  begin
     id 24 
     name rclavicle
     direction -0.899388 0.348209 -0.264294   
     length 3.68366  
     axis 0 0 0   XYZ 
    dof ry rz
    limits (-10.0 20.0)
           (-20.0 0.0)
  end
  begin
     id 25 
     name rhumerus
     direction -1 -4.48965e-011 -3.01536e-027  
     length 4.90577   
     axis 180 30 90   XYZ
    dof rx ry rz
    limits (-90.0 60.0)
           (-90.0 90.0)
           (-90.0 90.0)
  end
  begin
     id 26 
     name rradius
     direction -1 -4.48966e-011 3.93291e-027   
     length 3.42692   
     axis -180 30 90   XYZ
    dof rx
    limits (-10.0 170.0)
  end
  begin
     id 27 
     name rwrist
     direction -1 -4.48969e-011 -7.78665e-028   
     length 1.71346   
     axis 1.91374e-015 -90 -90   XYZ
    dof ry
    limits (-180.0 0.0)
  end
  begin
     id 28
     name rhand
     direction -1 -4.48967e-011 -1.55733e-027   
     length 0.740957   
     axis 9.9371e-016 -90 -90   XYZ
    dof rx rz
    limits (-90.0 90.0)
           (-45.0 45.0)
  end
  begin
     id 29
     name rfingers
     direction -1 -4.48949e-011 -3.11466e-027   
     length 0.597378   
     axis 1.98742e-015 -90 -90   XYZ
    dof rx
    limits (0.0 90.0)
  end
  begin
     id 30
     name rthumb
     direction -0.707107 -6.34931e-011 0.707107   
     length 0.857719   
     axis -90 -45 -2.85299e-015   XYZ
    dof rx rz
    limits (-45.0 45.0)
           (-45.0 45.0)
  end
:hierarchy
  begin
    root lhipjoint rhipjoint lowerback
    lhipjoint lfemur
    lfemur ltibia
    ltibia lfoot
    lfoot ltoes
    rhipjoint rfemur
    rfemur rtibia
    rtibia rfoot
    rfoot rtoes
    lowerback upperback
    upperback thorax
    thorax lowerneck lclavicle rclavicle
    lowerneck upperneck
    upperneck head
    lclavicle lhumerus
    lhumerus lradius
    lradius lwrist
    lwrist lhand lthumb
    lhand lfingers
    rclavicle rhumerus
    rhumerus rradius
    rradius rwrist
    rwrist rhand rthumb
    rhand rfingers
  end

#!OML:ASF E:\I on waltz\AllaLogoMonkeySwing\Project 1\Capture day 1\Session 1\Subject1.ASF
:FULLY-SPECIFIED
:DEGREES
219
root 0.294072 17.4725 13.7093 -0.0382321 0.958966 -0.875437
lowerback 7.77034 1.54791 -3.07112
upperback -0.435955 1.83214 1.11964
thorax -4.95032 1.0008 2.67266
lowerneck -10.105 7.37991 4.58694
upperneck 21.8051 11.3781 -8.13272
head 9.25322 4.92103 -2.23821
rclavicle 1.49679e-014 -6.06293e-015
rhumerus -68.5905 -57.7065 -25.2984
rradius 10.8128
rwrist 46.7587
rhand -6.13336 -402.135
rfingers 7.12502
rthumb 19.7042 -71.1561
lclavicle 1.49679e-014 -6.06293e-015
lhumerus -52.0537 30.4692 64.1136
lradius 29.9228
lwrist -15.273
lhand -1.94763 -12.8391
lfingers 7.12502
lthumb 23.7236 15.7167
rfemur -7.62969 -0.3386 18.5681
rtibia 31.5143
rfoot -20.9796 -5.42402
rtoes 20.2281
lfemur -6.33548 1.19704 -18.1663
ltibia 28.2034
lfoot -20.5364 2.94387
ltoes -34.6823
220
root 0.266091 17.4741 13.7158 -0.117068 1.19336 -1.00552
lowerback 7.7595 1.544 -2.76837
upperback -0.337929 1.8574 1.15329
thorax -4.83431 1.003 2.53545
lowerneck -10.1433 7.3125 4.722
upperneck 22.1602 11.3428 -8.33012
head 9.40279 4.88482 -2.32981
rclavicle 1.17407e-015 7.05686e-015
rhumerus -68.525 -56.1571 -26.2404
rradius 11.0657
rwrist 45.3325
rhand -6.87538 -402.384
rfingers 7.12502
rthumb 18.9907 -71.4766
lclavicle 1.17407e-015 7.05686e-015
lhumerus -52.8147 30.4007 64.1093
lradius 29.8418
lwrist -14.4668
lhand -1.70862 -12.2218
lfingers 7.12502
lthumb 23.9528 16.304
rfemur -7.45555 -0.486461 18.8084
rtibia 31.439
rfoot -21.0178 -5.43785
rtoes 20.0536
lfemur -6.23636 0.879523 -17.9373
ltibia 28.1481
lfoot -20.6871 2.86239
ltoes -33.4862
221
root 0.233177 17.4734 13.7197 -0.198638 1.43397 -1.18467
lowerback 7.70413 1.53169 -2.53206
upperback -0.229898 1.86863 1.24281
thorax -4.6861 1.00064 2.49676
lowerneck -10.202 7.25467 4.81693
upperneck 22.6715 11.3307 -8.46637
head 9.60745 4.85734 -2.39141
rclavicle 1.42659e-014 9.88954e-015
rhumerus -66.7923 -54.139 -29.1997
rradius 11.3509
rwrist 42.6749
rhand -7.2821 -401.841
rfingers 7.12502
rthumb 18.5995 -70.9719
lclavicle 1.42659e-014 9.88954e-015
lhumerus -53.6326 30.4696 64.0875
lradius 30.0207
lwrist -13.1727
lhand -1.4068 -11.7354
lfingers 7.12502
lthumb 24.2422 16.7521
rfemur -7.2884 -0.494359 19.1547
rtibia 31.3726
rfoot -21.0245 -5.66031
rtoes 19.9434
lfemur -6.13514 0.608019 -17.6252
ltibia 28.0814
lfoot -20.7348 2.90929
ltoes -33.7272
222
root 0.196273 17.47 13.718 -0.343256 1.75397 -1.32895
lowerback 7.69641 1.49747 -2.37484
upperback -0.0822024 1.84238 1.34505
thorax -4.52425 0.981428 2.5197
lowerneck -10.3581 7.1807 4.75646
upperneck 23.3917 11.3104 -8.45724
head 9.88738 4.81875 -2.37655
rclavicle -1.26415e-014 -3.57812e-015
rhumerus -64.9808 -52.203 -32.2069
rradius 11.5849
rwrist 40.155
rhand -6.9864 -400.66
rfingers 7.12502
rthumb 18.8839 -69.7635
lclavicle -1.26415e-014 -3.57812e-015
lhumerus -54.3943 30.7733 63.9086
lradius 30.2002
lwrist -12.0315
lhand -1.11009 -11.5099
lfingers 7.12502
lthumb 24.5267 16.9394
rfemur -7.06449 -0.510365 19.4856
rtibia 31.3099
rfoot -21.0537 -5.97869
rtoes 20.0312
lfemur -5.99853 0.383247 -17.3265
ltibia 28.0082
lfoot -20.7504 2.8806
ltoes -33.8601
223
root 0.162158 17.4672 13.7074 -0.468574 2.1366 -1.41845
lowerback 7.78247 1.4483 -2.16496
upperback 0.0265416 1.79694 1.40693
thorax -4.45173 0.952791 2.47065
lowerneck -10.5337 7.09811 4.69003
upperneck 24.3113 11.3103 -8.47668
head 10.2503 4.77941 -2.36879
rclavicle 4.1869e-015 -5.96354e-015
rhumerus -63.039 -50.2547 -35.377
rradius 11.796
rwrist 37.3982
rhand -6.33903 -399.269
rfingers 7.12502
rthumb 19.5064 -68.3109
lclavicle 4.1869e-015 -5.96354e-015
lhumerus -54.9775 31.0782 63.7098
lradius 30.2075
lwrist -11.0606
lhand -0.954363 -11.5519
lfingers 7.12502
lthumb 24.676 16.8771
rfemur -6.88861 -0.679702 19.7212
rtibia 31.2372
rfoot -21.0499 -6.20394
rtoes 19.8611
lfemur -5.92868 0.111588 -17.1024
ltibia 27.9451
lfoot -20.7217 2.79705
ltoes -33.9555
224
root 0.129224 17.4668 13.6937 -0.574266 2.43314 -1.51448
lowerback 7.86747 1.40683 -1.91846
upperback 0.104376 1.76496 1.46069
thorax -4.41048 0.930868 2.39058
lowerneck -10.708 7.05781 4.61282
upperneck 25.5029 11.3974 -8.45993
head 10.7241 4.77453 -2.33703
rclavicle -1.4561e-014 -1.42131e-014
rhumerus -61.417 -48.4792 -38.1613
rradius 12.0798
rwrist 34.8582
rhand -5.67078 -398.168
rfingers 7.12502
rthumb 20.1488 -67.1426
lclavicle -1.4561e-014 -1.42131e-014
lhumerus -55.4391 31.3618 63.537
lradius 30.1674
lwrist -10.2605
lhand -0.785521 -11.5239
lfingers 7.12502
lthumb 24.8378 16.8828
rfemur -6.75321 -0.739338 19.9653
rtibia 31.1684
rfoot -21.0524 -6.43437
rtoes 19.7371
lfemur -5.88711 -0.183481 -16.889
ltibia 27.879
lfoot -20.6412 2.77842
ltoes -34.1267
225
root 0.0933739 17.4703 13.6763 -0.674994 2.65822 -1.58651
lowerback 7.91268 1.36673 -1.73478
upperback 0.199008 1.72967 1.51375
thorax -4.33136 0.9083 2.34654
lowerneck -10.8623 7.04425 4.47151
upperneck 26.9099 11.5369 -8.34033
head 11.2803 4.79188 -2.25324
rclavicle -1.35981e-014 -7.05686e-015
rhumerus -60.9577 -47.643 -39.2251
rradius 12.3164
rwrist 33.9084
rhand -4.98945 -397.387
rfingers 7.12502
rthumb 20.8035 -66.292
lclavicle -1.35981e-014 -7.05686e-015
lhumerus -55.7541 31.749 63.3434
lradius 30.0969
lwrist -9.90909
lhand -0.52127 -11.3895
lfingers 7.12502
lthumb 25.091 16.9821
rfemur -6.65957 -0.627509 20.2104
rtibia 31.1273
rfoot -21.0987 -6.69125
rtoes 20.0492
lfemur -5.85305 -0.406155 -16.6922
ltibia 27.7923
lfoot -20.5053 2.74035
ltoes -34.2502
